<svg id="Layer_1" data-name="Layer 1" xmlns="http://www.w3.org/2000/svg" xmlns:xlink="http://www.w3.org/1999/xlink" viewBox="0 0 300 300"><defs><style>.cls-1,.cls-3,.cls-4,.cls-5{fill:none;}.cls-1{clip-rule:evenodd;}.cls-2{clip-path:url(#clip-path);}.cls-3,.cls-4,.cls-5{stroke:#0f4c81;stroke-width:6px;}.cls-3,.cls-5{stroke-linecap:round;}.cls-3,.cls-4{stroke-linejoin:round;}.cls-5{stroke-miterlimit:10;}</style><clipPath id="clip-path"><polygon class="cls-1" points="-295 244.16 -106.67 244.16 -106.9 243.71 -45 243.71 -106.57 120.57 -137.52 182.47 -200.84 55.84 -295 244.16"/></clipPath></defs><title>clipboard</title><line class="cls-3" x1="102.32" y1="108.78" x2="102.32" y2="140.79"/><line class="cls-3" x1="86.32" y1="124.78" x2="118.32" y2="124.78"/><polyline id="_Path_" data-name="&lt;Path&gt;" class="cls-3" points="169.19 52.27 207.27 52.27 207.27 241.18 59.24 241.18 59.24 52.27 97.31 52.27"/><polyline id="_Path_2" data-name="&lt;Path&gt;" class="cls-4" points="207.28 69.34 224.02 69.34 224.02 258.26 75.98 258.26 75.98 241.18"/><polyline id="_Path_3" data-name="&lt;Path&gt;" class="cls-4" points="224 87.5 240.76 87.5 240.76 275 92.73 275 92.73 258.26"/><line id="_Path_4" data-name="&lt;Path&gt;" class="cls-5" x1="86.61" y1="168.49" x2="180.19" y2="168.49"/><line id="_Path_5" data-name="&lt;Path&gt;" class="cls-5" x1="86.61" y1="198.6" x2="180.19" y2="198.6"/><line id="_Path_6" data-name="&lt;Path&gt;" class="cls-5" x1="135.76" y1="138.84" x2="180.19" y2="138.84"/><line id="_Path_7" data-name="&lt;Path&gt;" class="cls-5" x1="135.76" y1="109.18" x2="180.19" y2="109.18"/><polygon class="cls-3" points="118.22 40.86 97.31 40.86 97.31 63.68 169.19 63.68 169.19 40.86 150.43 40.86 150.43 25 118.22 25 118.22 40.86"/></svg>