<svg id="Layer_1" data-name="Layer 1" xmlns="http://www.w3.org/2000/svg" xmlns:xlink="http://www.w3.org/1999/xlink" viewBox="0 0 300 300"><defs><style>.cls-1,.cls-3{fill:none;}.cls-1{clip-rule:evenodd;}.cls-2{clip-path:url(#clip-path);}.cls-3{stroke:#00abc0;stroke-linecap:round;stroke-linejoin:round;stroke-width:7px;}</style><clipPath id="clip-path"><polygon class="cls-1" points="-2535 244.16 -2346.67 244.16 -2346.9 243.71 -2285 243.71 -2346.57 120.57 -2377.52 182.47 -2440.84 55.84 -2535 244.16"/></clipPath></defs><title>health</title><path class="cls-3" d="M120,239.69a18.19,18.19,0,0,1,0-25.57,17.81,17.81,0,0,1,25.35,0l4.69,4.73,4.69-4.73a17.81,17.81,0,0,1,25.35,0,18.19,18.19,0,0,1,0,25.57L150,270Z"/><path class="cls-3" d="M270,270c0-55-41.84-101-93.09-113.14a66.3,66.3,0,1,0-53.82,0C71.84,169,30,215,30,270"/></svg>