<svg id="Layer_1" data-name="Layer 1" xmlns="http://www.w3.org/2000/svg" viewBox="0 0 300 600"><defs><style>.cls-1{fill:#cceef2;stroke:#99dde5;stroke-miterlimit:10;}</style></defs><title>man</title><path class="cls-1" d="M252.82,304.05c-1.87-2.49-2.49-7.48-5.6-9.34a54.08,54.08,0,0,1-10-6.23c-3.74-3.74-4.36-11.22-5.61-16.2-3.73-14.95-3.11-29.9-4.36-44.85-.62-8.1-4.36-15.57-6.85-23.05-2.49-6.23-2.49-56.06-2.49-63.53-.62-6.86,0-15.58-4.36-20.56-3.74-4.36-8.72-5.61-13.7-6.85-6.23-1.87-33.64-10.59-32.4-18.69.63-1.87,4.36-15,6.23-15.57,3.12-.63,3.74-11.22,4.36-13.71h0A40,40,0,0,0,179.94,53c0-18.06-13.08-33-28.65-33h-3.12c-15.57,0-28.65,15-28.65,33a40,40,0,0,0,1.87,12.46h0c.62,2.49,1.24,13.08,4.36,13.71,1.87.62,6.23,13.08,6.23,15.57,1.24,8.1-25.54,16.2-32.39,18.69-5,1.24-10,3.11-13.71,6.85-4.36,5-4.36,14.33-4.36,20.56-.62,6.85-.62,56.68-2.49,63.53-2.49,7.48-6.23,15-6.85,23.05-1.87,14.95-.62,29.9-4.36,44.85-1.25,5-1.25,12.46-5.61,16.2-3.11,2.49-6.85,4.36-10,6.23s-3.74,6.22-5.61,9.34c-1.25,1.87-8.72,10-3.12,10,6.86,0,6.86-10,11.84-10.59-.62,8.72-3.74,16.19-4.36,24.29,0,1.25.62,7.47,3.74,4.36,1.24-1.25,3.73-14.95,4.36-14.95-.63,3.74-1.87,13.08-2.49,16.82,0,1.87,3.11,3.74,4.36,1.87,1.24-2.49,4.36-16.82,5.6-18.07-.62,4.36-.62,8.72-1.24,13.08a6.82,6.82,0,0,0,0,5c1.24,1.24,3.73,1.24,4.36-.63.62-3.73,1.87-8.09,2.49-11.83,0-1.25.62-10.59,2.49-4.36.62,2.49,0,8.1,1.87,10,3.74,3.73,3.74-6.23,3.74-7.48-1.25-9.34,2.49-16.82,3.11-26.16s3.74-18.07,6.23-26.79C92.11,258,95.85,248,99,238a69.5,69.5,0,0,0,3.74-27.41c0-4.36,1.25-9.34,1.87-13.7.62-5,0-12.46,2.49-17.44,3.74,18.06,1.87,59.17,1.87,62.91a48.41,48.41,0,0,1-1.87,13.7c-1.24,9.35-3.74,18.69-5,28-.62,8.09-3.12,16.19-3.12,24.29-.62,10,1.25,20.56.63,30.52,0,5.61,3.73,54.2,5,56.69s-3.74,36.75-3.74,38.62C99,441.09,99,449.19,99,456c0,19.31,6.86,36.13,10.59,56.69.63,2.49.63,6.22,1.25,10.58.62,11.84-1.25,22.43-9.34,32.4-10,12.45-9.35,13.7,4.36,21.18,1.24.62,3.73,1.86,5.6,1.86s3.12-.62,5-1.86c8.09-11.22,14.32-22.43,13.7-38,0-6.85-.62-14.95,0-21.18,1.87-18.07,3.11-36.75,3.74-38,1.24-4.36,3.73-28.65,2.49-36.75-4.36-6.23-1.25-12.46,0-19.31,1.24-6.23,7.47-64.78,8.1-69.77,1.24-8.72,3.11-18.06,3.11-26.78,0-3.12-1.87-8.72,1.25-9.35,3.11.63,1.24,6.23,1.24,9.35,0,8.72,1.87,18.06,3.12,26.78.62,4.36,6.85,63.54,8.1,69.77,1.86,6.85,4.36,13.7,3.73,20.55-1.24,8.1,1.25,32.4,2.49,36.76.63,1.24,1.87,19.93,3.74,38,.62,6.23,0,14.33,0,21.18-.62,15,5.61,26.79,13.71,38,1.86,1.25,3.11,1.87,5,1.87s3.74-1.87,5.61-1.87c13.08-7.47,13.7-8.72,4.36-21.18-8.1-10-9.35-20.55-9.35-32.39A55.11,55.11,0,0,1,191.78,514c3.74-20.56,11.21-37.37,10.59-56.68,0-7.48,0-15.58-1.87-21.81-.62-1.86-5.61-36.13-3.74-38.62,1.25-1.87,5-51.08,5-56.68,0-10,1.25-20.56.63-30.52,0-8.1-2.49-16.2-3.12-24.3-1.24-9.34-3.73-18.69-5-28-.62-5-1.87-8.72-1.87-13.7,0-3.74-1.87-44.85,1.87-62.92,1.87,4.36,1.25,12.46,2.49,17.44.62,4.36,1.87,9.35,1.87,13.71a69.55,69.55,0,0,0,3.74,27.41,246.38,246.38,0,0,1,9.34,30.52c2.49,8.72,6.23,18.06,6.23,26.78.62,9.35,4.36,16.82,3.12,26.17,0,1.24,0,11.21,3.73,7.47,1.87-1.87,1.25-7.47,1.87-10,1.87-6.22,1.87,2.5,1.87,4.37A80.68,80.68,0,0,0,231,336.44a2.42,2.42,0,0,0,4.36.62,6.9,6.9,0,0,0,0-5c-.62-4.36-.62-8.72-1.24-13.08,1.24,1.24,4.36,15.57,5.6,18.06s4.36.63,4.36-1.87c-.62-3.73-1.87-13.08-2.49-16.81.62,0,3.12,13.7,4.36,14.95,2.49,3.11,3.74-3.12,3.74-4.36-.62-8.1-3.74-16.2-4.36-24.3,5,.62,5,10,11.83,10.59C261.54,314,254.07,305.92,252.82,304.05Z"/></svg>