<svg id="Layer_1" data-name="Layer 1" xmlns="http://www.w3.org/2000/svg" xmlns:xlink="http://www.w3.org/1999/xlink" viewBox="0 0 300 300"><defs><style>.cls-1,.cls-3{fill:none;}.cls-1{clip-rule:evenodd;}.cls-2{clip-path:url(#clip-path);}.cls-3{stroke:#0f4c81;stroke-linecap:round;stroke-linejoin:round;stroke-width:6px;}</style><clipPath id="clip-path"><polygon class="cls-1" points="-615 244.16 -426.67 244.16 -426.9 243.71 -365 243.71 -426.57 120.57 -457.52 182.47 -520.84 55.84 -615 244.16"/></clipPath></defs><title>medication</title><line class="cls-3" x1="150" y1="197.45" x2="150" y2="275"/><line class="cls-3" x1="150" y1="59.16" x2="150" y2="170.22"/><path class="cls-3" d="M148.28,183c13.89,7.94,28.41,15.51,28.41,31.36,0,11.12-7.17,18.17-16.24,24.13"/><path class="cls-3" d="M138.63,130.14c-8.6,5.82-15.24,12.75-15.24,23.46,0,14.51,12.18,22.09,24.89,29.35"/><path class="cls-3" d="M163.94,73.56A20.85,20.85,0,0,1,176.69,92.9c0,10.28-6.12,17.08-14.2,22.75"/><path class="cls-3" d="M160.4,177.76c9.1-6,16.29-13,16.29-24.16,0-30.35-53.3-30.35-53.3-60.7a21.36,21.36,0,0,1,12.44-19.34"/><path class="cls-3" d="M139.66,238.45c-9.09-6-16.27-13-16.27-24.15,0-10.79,6.73-17.74,15.42-23.59"/><circle class="cls-3" cx="150" cy="41.42" r="16.42"/><line class="cls-3" x1="256.99" y1="89.78" x2="194.43" y2="89.78"/><line class="cls-3" x1="236.07" y1="105.39" x2="192.4" y2="105.39"/><path class="cls-3" d="M176.69,125.38c10.69-5,17.25-18.59,17.25-29.58,0-18.32,11.89-22.24,22.59-22.24h51.93"/><line class="cls-3" x1="43.01" y1="89.78" x2="105.57" y2="89.78"/><line class="cls-3" x1="63.93" y1="105.39" x2="107.6" y2="105.39"/><path class="cls-3" d="M123.31,125.38c-10.69-5-17.25-18.59-17.25-29.58,0-18.32-11.89-22.24-22.59-22.24H31.54"/></svg>