<svg id="Layer_1" data-name="Layer 1" xmlns="http://www.w3.org/2000/svg" xmlns:xlink="http://www.w3.org/1999/xlink" viewBox="0 0 300 300"><defs><style>.cls-1,.cls-3{fill:none;}.cls-1{clip-rule:evenodd;}.cls-2{clip-path:url(#clip-path);}.cls-3{stroke:#00abc0;stroke-linecap:round;stroke-linejoin:round;stroke-width:7px;}</style><clipPath id="clip-path"><polygon class="cls-1" points="-2215 244.16 -2026.67 244.16 -2026.9 243.71 -1965 243.71 -2026.57 120.57 -2057.52 182.47 -2120.84 55.84 -2215 244.16"/></clipPath></defs><title>scales</title><path class="cls-3" d="M30,255.46c0,8,7.64,14.54,17.07,14.54H252.93c9.43,0,17.07-6.51,17.07-14.54V44.54c0-8-7.64-14.54-17.07-14.54H47.07C37.64,30,30,36.51,30,44.54Z"/><path class="cls-3" d="M150,114a51.33,51.33,0,0,0-36.79,15.58L70.75,86.21a110.33,110.33,0,0,1,158.5,0l-42.46,43.41A51.35,51.35,0,0,0,150,114Z"/><line class="cls-3" x1="147.74" y1="111.51" x2="147.74" y2="84.34"/><line class="cls-3" x1="147.74" y1="48.11" x2="147.74" y2="66.23"/><line class="cls-3" x1="197.55" y1="61.7" x2="188.49" y2="75.28"/><line class="cls-3" x1="97.92" y1="61.7" x2="106.98" y2="79.81"/></svg>